<mxfile host="app.diagrams.net" agent="Mozilla/5.0 (Windows NT 10.0; Win64; x64) AppleWebKit/537.36 (KHTML, like Gecko) Chrome/131.0.0.0 Safari/537.36" version="25.0.1">
  <diagram name="Page-1" id="aTM2vdfj-_rym8DIIym2">
    <mxGraphModel dx="1588" dy="824" grid="1" gridSize="10" guides="1" tooltips="1" connect="1" arrows="1" fold="1" page="1" pageScale="1" pageWidth="850" pageHeight="1100" math="0" shadow="0">
      <root>
        <mxCell id="0" />
        <mxCell id="1" parent="0" />
        <mxCell id="63P26Sw3_Z7AYtrskT4u-1" value="&lt;font style=&quot;font-size: 20px;&quot;&gt;Consignment Service&lt;/font&gt;" style="rounded=0;whiteSpace=wrap;html=1;" vertex="1" parent="1">
          <mxGeometry x="220" y="20" width="400" height="60" as="geometry" />
        </mxCell>
        <mxCell id="63P26Sw3_Z7AYtrskT4u-2" value="Consignments" style="swimlane;fontStyle=0;childLayout=stackLayout;horizontal=1;startSize=30;horizontalStack=0;resizeParent=1;resizeParentMax=0;resizeLast=0;collapsible=1;marginBottom=0;whiteSpace=wrap;html=1;shadow=1;" vertex="1" parent="1">
          <mxGeometry x="20" y="130" width="370" height="600" as="geometry" />
        </mxCell>
        <mxCell id="63P26Sw3_Z7AYtrskT4u-5" value="&lt;div style=&quot;line-height: 210%;&quot;&gt;&lt;div&gt;ID : String&lt;/div&gt;&lt;div&gt;Consignment Number : String&lt;/div&gt;&lt;div&gt;Order Items : String&lt;/div&gt;&lt;div&gt;Order Number : String&lt;/div&gt;&lt;div&gt;Consignment Items : String&lt;/div&gt;&lt;div&gt;Warehouse Number : String&lt;/div&gt;&lt;div&gt;Status : Enum (ConsignmentStatusEnum)&lt;/div&gt;&lt;div&gt;Status Log : String&lt;/div&gt;&lt;div&gt;Billing Address : String&lt;/div&gt;&lt;div&gt;Shipping Address : String&lt;/div&gt;&lt;div&gt;Shipping PinCode : String&lt;/div&gt;&lt;div&gt;Customer Name : String&lt;/div&gt;&lt;div&gt;Phone : String&lt;/div&gt;&lt;div&gt;Email : String&lt;/div&gt;&lt;div&gt;Logistics Code Name : String&lt;/div&gt;&lt;div&gt;Logistics Tracking ID : String&lt;/div&gt;&lt;div&gt;Creation Date : ZonedDateTime&lt;/div&gt;&lt;div&gt;Last Modified Date : ZonedDateTime&lt;/div&gt;&lt;div&gt;Fulfillment Completion Date Time : ZonedDateTime&lt;/div&gt;&lt;div&gt;Fulfillment Type : Enum (ConsignmentFulfillmentTypeEnum)&lt;/div&gt;&lt;div&gt;Stock Movement ID : String&lt;/div&gt;&lt;/div&gt;&lt;div&gt;&lt;br&gt;&lt;/div&gt;" style="text;strokeColor=none;fillColor=none;align=left;verticalAlign=middle;spacingLeft=4;spacingRight=4;overflow=hidden;points=[[0,0.5],[1,0.5]];portConstraint=eastwest;rotatable=0;whiteSpace=wrap;html=1;" vertex="1" parent="63P26Sw3_Z7AYtrskT4u-2">
          <mxGeometry y="30" width="370" height="570" as="geometry" />
        </mxCell>
        <mxCell id="63P26Sw3_Z7AYtrskT4u-6" value="Consignment Items" style="swimlane;fontStyle=0;childLayout=stackLayout;horizontal=1;startSize=30;horizontalStack=0;resizeParent=1;resizeParentMax=0;resizeLast=0;collapsible=1;marginBottom=0;whiteSpace=wrap;html=1;shadow=1;" vertex="1" parent="1">
          <mxGeometry x="440" y="130" width="370" height="380" as="geometry" />
        </mxCell>
        <mxCell id="63P26Sw3_Z7AYtrskT4u-7" value="&lt;div style=&quot;line-height: 210%;&quot;&gt;&lt;div&gt;&lt;div&gt;ID : String&lt;/div&gt;&lt;div&gt;Consignment Item Number : String&lt;/div&gt;&lt;div&gt;Order Item Number : String&lt;/div&gt;&lt;div&gt;Consignment Number : String&lt;/div&gt;&lt;div&gt;Order Number : String&lt;/div&gt;&lt;div&gt;Warehouse Number : String&lt;/div&gt;&lt;div&gt;Status : Enum (ConsignmentStatusEnum)&lt;/div&gt;&lt;div&gt;Fulfillment Type : Enum (ConsignmentFulfillmentTypeEnum)&lt;/div&gt;&lt;div&gt;Creation Date : ZonedDateTime&lt;/div&gt;&lt;div&gt;Last Modified Date : ZonedDateTime&lt;/div&gt;&lt;div&gt;SKU : String&lt;/div&gt;&lt;div&gt;Quantity : Long&lt;/div&gt;&lt;/div&gt;&lt;div&gt;&lt;br&gt;&lt;/div&gt;&lt;/div&gt;" style="text;strokeColor=none;fillColor=none;align=left;verticalAlign=middle;spacingLeft=4;spacingRight=4;overflow=hidden;points=[[0,0.5],[1,0.5]];portConstraint=eastwest;rotatable=0;whiteSpace=wrap;html=1;" vertex="1" parent="63P26Sw3_Z7AYtrskT4u-6">
          <mxGeometry y="30" width="370" height="350" as="geometry" />
        </mxCell>
        <mxCell id="63P26Sw3_Z7AYtrskT4u-12" value="Consignment Fulfillment Type Enum" style="swimlane;fontStyle=0;childLayout=stackLayout;horizontal=1;startSize=30;horizontalStack=0;resizeParent=1;resizeParentMax=0;resizeLast=0;collapsible=1;marginBottom=0;whiteSpace=wrap;html=1;" vertex="1" parent="1">
          <mxGeometry x="510" y="960" width="230" height="90" as="geometry" />
        </mxCell>
        <mxCell id="63P26Sw3_Z7AYtrskT4u-13" value="DELIVERY" style="text;strokeColor=none;fillColor=none;align=left;verticalAlign=middle;spacingLeft=4;spacingRight=4;overflow=hidden;points=[[0,0.5],[1,0.5]];portConstraint=eastwest;rotatable=0;whiteSpace=wrap;html=1;" vertex="1" parent="63P26Sw3_Z7AYtrskT4u-12">
          <mxGeometry y="30" width="230" height="30" as="geometry" />
        </mxCell>
        <mxCell id="63P26Sw3_Z7AYtrskT4u-14" value="PICKUP" style="text;strokeColor=none;fillColor=none;align=left;verticalAlign=middle;spacingLeft=4;spacingRight=4;overflow=hidden;points=[[0,0.5],[1,0.5]];portConstraint=eastwest;rotatable=0;whiteSpace=wrap;html=1;" vertex="1" parent="63P26Sw3_Z7AYtrskT4u-12">
          <mxGeometry y="60" width="230" height="30" as="geometry" />
        </mxCell>
        <mxCell id="63P26Sw3_Z7AYtrskT4u-16" value="Consumption Status Enum" style="swimlane;fontStyle=0;childLayout=stackLayout;horizontal=1;startSize=30;horizontalStack=0;resizeParent=1;resizeParentMax=0;resizeLast=0;collapsible=1;marginBottom=0;whiteSpace=wrap;html=1;" vertex="1" parent="1">
          <mxGeometry x="510" y="540" width="230" height="360" as="geometry" />
        </mxCell>
        <mxCell id="63P26Sw3_Z7AYtrskT4u-19" value="&lt;div style=&quot;line-height: 200%;&quot;&gt;NO_STATUS&lt;/div&gt;&lt;div style=&quot;line-height: 200%;&quot;&gt;&lt;span style=&quot;white-space: normal;&quot;&gt;CREATED&lt;/span&gt;&lt;/div&gt;&lt;div style=&quot;line-height: 200%;&quot;&gt;&lt;span style=&quot;white-space: normal;&quot;&gt;PACKED&lt;/span&gt;&lt;/div&gt;&lt;div style=&quot;line-height: 200%;&quot;&gt;&lt;span style=&quot;white-space: normal;&quot;&gt;LOGISTICS_PICKED&lt;/span&gt;&lt;/div&gt;&lt;div style=&quot;line-height: 200%;&quot;&gt;&lt;span style=&quot;white-space: normal;&quot;&gt;LOGISTICS_DELIVERED&lt;/span&gt;&lt;/div&gt;&lt;div style=&quot;line-height: 200%;&quot;&gt;&lt;span style=&quot;white-space: normal;&quot;&gt;PICKED_UP&lt;/span&gt;&lt;/div&gt;&lt;div style=&quot;line-height: 200%;&quot;&gt;&lt;span style=&quot;white-space: normal;&quot;&gt;OUT_FOR_DELIVERY&lt;/span&gt;&lt;/div&gt;&lt;div style=&quot;line-height: 200%;&quot;&gt;&lt;span style=&quot;white-space: normal;&quot;&gt;OUT_FOR_PICKUP&lt;/span&gt;&lt;/div&gt;&lt;div style=&quot;line-height: 200%;&quot;&gt;&lt;span style=&quot;white-space: normal;&quot;&gt;COMPLETED&lt;/span&gt;&lt;/div&gt;&lt;div style=&quot;line-height: 200%;&quot;&gt;&lt;span style=&quot;white-space: normal;&quot;&gt;PARTIALLY_CANCELLED&lt;/span&gt;&lt;/div&gt;&lt;div style=&quot;line-height: 200%;&quot;&gt;&lt;span style=&quot;white-space: normal;&quot;&gt;CANCELLED&lt;/span&gt;&lt;/div&gt;&lt;div style=&quot;line-height: 200%;&quot;&gt;&lt;span style=&quot;white-space: normal;&quot;&gt;USER_CANCELLED&lt;/span&gt;&lt;/div&gt;&lt;div style=&quot;line-height: 200%;&quot;&gt;&lt;span style=&quot;white-space: normal;&quot;&gt;BUSINESS_CANCELLED&lt;/span&gt;&lt;/div&gt;" style="text;strokeColor=none;fillColor=none;align=left;verticalAlign=middle;spacingLeft=4;spacingRight=4;overflow=hidden;points=[[0,0.5],[1,0.5]];portConstraint=eastwest;rotatable=0;whiteSpace=wrap;html=1;" vertex="1" parent="63P26Sw3_Z7AYtrskT4u-16">
          <mxGeometry y="30" width="230" height="330" as="geometry" />
        </mxCell>
        <mxCell id="63P26Sw3_Z7AYtrskT4u-20" value="Transactions" style="swimlane;fontStyle=0;childLayout=stackLayout;horizontal=1;startSize=30;horizontalStack=0;resizeParent=1;resizeParentMax=0;resizeLast=0;collapsible=1;marginBottom=0;whiteSpace=wrap;html=1;shadow=1;" vertex="1" parent="1">
          <mxGeometry x="20" y="770" width="370" height="300" as="geometry" />
        </mxCell>
        <mxCell id="63P26Sw3_Z7AYtrskT4u-21" value="&lt;div style=&quot;line-height: 210%;&quot;&gt;&lt;div&gt;&lt;div&gt;&lt;div&gt;ID : String&lt;/div&gt;&lt;div&gt;Consignment Number : String&lt;/div&gt;&lt;div&gt;Order Number : String&lt;/div&gt;&lt;div&gt;Previous Status : Enum (ConsignmentStatusEnum)&lt;/div&gt;&lt;div&gt;Logistics Code Name : String&lt;/div&gt;&lt;div&gt;Logistics Tracking ID : String&lt;/div&gt;&lt;div&gt;Present Status : Enum (ConsignmentStatusEnum)&lt;/div&gt;&lt;div&gt;Transaction Date Time : ZonedDateTime&lt;/div&gt;&lt;div&gt;Status Log : String&lt;/div&gt;&lt;div&gt;Fulfillment Type : Enum (ConsignmentFulfillmentTypeEnum)&lt;/div&gt;&lt;/div&gt;&lt;/div&gt;&lt;/div&gt;" style="text;strokeColor=none;fillColor=none;align=left;verticalAlign=middle;spacingLeft=4;spacingRight=4;overflow=hidden;points=[[0,0.5],[1,0.5]];portConstraint=eastwest;rotatable=0;whiteSpace=wrap;html=1;" vertex="1" parent="63P26Sw3_Z7AYtrskT4u-20">
          <mxGeometry y="30" width="370" height="270" as="geometry" />
        </mxCell>
      </root>
    </mxGraphModel>
  </diagram>
</mxfile>
